<svg width="142" height="147" viewBox="0 0 142 147" fill="none" xmlns="http://www.w3.org/2000/svg">
<g id="Group 86">
<path id="Vector" d="M108.182 103.65C126.359 103.65 141.095 88.914 141.095 70.7368C141.095 52.5595 126.359 37.824 108.182 37.824C90.0048 37.824 75.2693 52.5595 75.2693 70.7368C75.2693 88.914 90.0048 103.65 108.182 103.65Z" fill="#F0F0F0"/>
<path id="Vector_2" d="M16.5 147C25.6127 147 33 139.613 33 130.5C33 121.387 25.6127 114 16.5 114C7.3873 114 0 121.387 0 130.5C0 139.613 7.3873 147 16.5 147Z" fill="#F0F0F0"/>
<path id="Vector_3" d="M94.0682 64.3608L79.3737 49.8533C78.6584 49.1415 77.8096 48.5779 76.876 48.1947C75.9425 47.8115 74.9425 47.6164 73.9334 47.6204H73.8817C72.865 47.6234 71.8589 47.8279 70.9218 48.2223C69.9846 48.6166 69.135 49.193 68.4221 49.9179C65.1364 53.243 63.2677 57.7125 63.2087 62.3868C63.1497 67.061 64.9051 71.5762 68.1059 74.9832C68.2607 75.151 68.4221 75.3123 68.5834 75.4737C69.4771 76.362 70.4637 77.1517 71.5262 77.8292C74.4312 79.7062 77.8188 80.6993 81.2775 80.6881H81.3872C83.7611 80.68 86.1098 80.2013 88.2976 79.2797C90.4853 78.3581 92.4687 77.0118 94.1328 75.3188C95.5748 73.8558 96.3778 71.8806 96.3657 69.8264C96.3536 67.7723 95.5274 65.8067 94.0682 64.3608ZM93.2164 74.4088C90.4881 77.1573 86.8958 78.8813 83.0448 79.2904C79.1939 79.6995 75.3196 78.7686 72.0748 76.6546C71.1467 76.0404 70.28 75.3381 69.4869 74.5573C66.3206 71.4301 64.5262 67.1734 64.4984 62.7233C64.4706 58.2732 66.2116 53.9943 69.3385 50.8278C69.9329 50.2221 70.6418 49.7407 71.424 49.4117C72.2062 49.0826 73.0461 48.9124 73.8947 48.9111H73.9334C74.7736 48.9082 75.6061 49.0708 76.3835 49.3897C77.1608 49.7086 77.8677 50.1776 78.4637 50.7697L93.1583 65.2836C94.3748 66.4867 95.0641 68.1233 95.075 69.8342C95.0859 71.5451 94.4175 73.1904 93.2164 74.4088Z" fill="#3F3D56"/>
<path id="Vector_4" d="M45.8544 16.7468L31.1598 2.23293C29.7134 0.797871 27.757 -0.00510636 25.7195 2.44377e-05H25.6744C24.6563 0.00411978 23.649 0.209812 22.7109 0.605236C21.7727 1.00066 20.9221 1.57799 20.2082 2.30388C17.492 5.06254 15.7307 8.61868 15.1826 12.4512C14.6344 16.2836 15.3282 20.1909 17.1622 23.6004L17.1687 23.6068C17.9253 25.0014 18.865 26.2885 19.963 27.4338C20.0856 27.5757 20.2276 27.7177 20.3696 27.8597C23.7441 31.2093 28.3089 33.0844 33.0636 33.0741H33.1798C35.554 33.0642 37.9028 32.584 40.0904 31.6613C42.2781 30.7387 44.2612 29.3918 45.9254 27.6984C46.6399 26.9747 47.2049 26.1173 47.588 25.1752C47.9711 24.2331 48.1649 23.2248 48.1583 22.2079C48.1517 21.1909 47.9448 20.1852 47.5495 19.2482C47.1542 18.3112 46.5782 17.4612 45.8544 16.7468V16.7468ZM45.0026 26.7949C43.4579 28.3663 41.6172 29.6162 39.5869 30.4724C37.5566 31.3286 35.3768 31.7742 33.1733 31.7835H33.0636C29.7545 31.7822 26.5196 30.8025 23.7658 28.9675C21.012 27.1326 18.8623 24.5243 17.5869 21.4708C16.3116 18.4173 15.9676 15.0549 16.5982 11.8064C17.2288 8.5579 18.8059 5.56841 21.1311 3.21387C22.3342 1.99749 23.9708 1.30819 25.6817 1.2973C27.3925 1.28641 29.0378 1.9548 30.2563 3.15577L44.9509 17.6632C46.1666 18.8684 46.8547 20.5066 46.8644 22.2184C46.8741 23.9302 46.2045 25.576 45.0025 26.7949L45.0026 26.7949Z" fill="#3F3D56"/>
<path id="Vector_5" d="M95.0076 68.9217L78.8073 52.9212C77.745 51.8744 76.3107 51.2916 74.8193 51.3009C73.3279 51.3101 71.901 51.9106 70.8518 52.9706C69.5392 54.2966 68.5009 55.8683 67.7961 57.5959C67.0914 59.3235 66.7341 61.1731 66.7446 63.0388C66.7552 64.9046 67.1333 66.75 67.8575 68.4695C68.5818 70.189 69.6378 71.7489 70.9653 73.06C72.2928 74.3711 73.8656 75.4077 75.594 76.1105C77.3224 76.8133 79.1723 77.1686 81.0381 77.156C82.9038 77.1433 84.7488 76.7631 86.4675 76.037C88.1862 75.3108 89.7449 74.2531 91.0545 72.9241L95.0076 68.9217Z" fill="#77B2D3"/>
<path id="Vector_6" d="M46.7967 21.3053L30.5963 5.30478C29.534 4.25791 28.0998 3.67518 26.6084 3.68443C25.1169 3.69369 23.6901 4.29418 22.6408 5.35415C21.3283 6.68017 20.2899 8.2519 19.5852 9.97948C18.8805 11.7071 18.5231 13.5566 18.5337 15.4224C18.5442 17.2881 18.9224 19.1335 19.6466 20.853C20.3708 22.5725 21.4269 24.1324 22.7544 25.4435C24.0818 26.7546 25.6547 27.7912 27.3831 28.494C29.1114 29.1969 30.9614 29.5521 32.8271 29.5395C34.6929 29.5269 36.5379 29.1467 38.2566 28.4205C39.9753 27.6944 41.534 26.6366 42.8436 25.3077L46.7967 21.3053Z" fill="#77B2D3"/>
<path id="Vector_7" d="M77.2055 78.8876L76.8183 79.9072C74.9985 79.2167 73.2345 78.524 71.5265 77.8292C41.2725 65.4836 26.8296 51.0343 17.1688 23.6069L17.1623 23.6005C16.7041 22.3098 16.2588 20.989 15.8264 19.6381L16.8461 19.309C17.187 20.6082 17.6855 21.8608 18.3304 23.0391C18.8596 24.5427 19.4038 26.0077 19.9631 27.4339C29.0432 50.5826 42.4342 63.8122 68.1061 74.9832C69.3968 75.5447 70.7198 76.1018 72.075 76.6547C73.6487 77.68 75.3828 78.4347 77.2055 78.8876Z" fill="#3F3D56"/>
<path id="Vector_8" d="M30.8904 31.8994L29.9832 32.818L63.5013 65.923L64.4085 65.0045L30.8904 31.8994Z" fill="#3F3D56"/>
</g>
</svg>
